<svg xmlns="http://www.w3.org/2000/svg" width="1920" height="1920"><path d="M717,-608L478,-322L511,-199Z" fill="#31261a" stroke="#31261a" stroke-width="1.51"/><path d="M1196,1677L1436,1128L493,1409Z" fill="#7e4d03" stroke="#7e4d03" stroke-width="1.51"/><path d="M478,-322L-244,-232L511,-199Z" fill="#28231e" stroke="#28231e" stroke-width="1.51"/><path d="M1109,-613L717,-608L511,-199Z" fill="#362817" stroke="#362817" stroke-width="1.51"/><path d="M478,-322L109,-741L-244,-232Z" fill="#252220" stroke="#252220" stroke-width="1.51"/><path d="M-596,208L-609,524L-363,114Z" fill="#29231e" stroke="#29231e" stroke-width="1.51"/><path d="M-524,-122L-596,208L-363,114Z" fill="#232120" stroke="#232120" stroke-width="1.51"/><path d="M227,1998L947,1741L438,1481Z" fill="#895614" stroke="#895614" stroke-width="1.51"/><path d="M438,1481L947,1741L493,1409Z" fill="#7a4d0f" stroke="#7a4d0f" stroke-width="1.51"/><path d="M1436,1128L1796,1429L1683,822Z" fill="#9a5e02" stroke="#9a5e02" stroke-width="1.51"/><path d="M1326,-45L1109,-613L511,-199Z" fill="#3c2a15" stroke="#3c2a15" stroke-width="1.51"/><path d="M1894,-376L1109,-613L1326,-45Z" fill="#62421c" stroke="#62421c" stroke-width="1.51"/><path d="M947,1741L1196,1677L493,1409Z" fill="#865306" stroke="#865306" stroke-width="1.51"/><path d="M-244,-232L-524,-122L-363,114Z" fill="#212121" stroke="#212121" stroke-width="1.51"/><path d="M-144,1312L-240,1557L438,1481Z" fill="#63421c" stroke="#63421c" stroke-width="1.51"/><path d="M-648,1364L-240,1557L-144,1312Z" fill="#5f401c" stroke="#5f401c" stroke-width="1.51"/><path d="M-648,1364L-144,1312L-468,845Z" fill="#4c3418" stroke="#4c3418" stroke-width="1.51"/><path d="M-10,-919L109,-741L717,-608Z" fill="#29231e" stroke="#29231e" stroke-width="1.51"/><path d="M717,-608L109,-741L478,-322Z" fill="#2e251c" stroke="#2e251c" stroke-width="1.51"/><path d="M-244,-232L-777,-545L-524,-122Z" fill="#212121" stroke="#212121" stroke-width="1.51"/><path d="M2442,535L1974,130L1843,386Z" fill="#945e1b" stroke="#945e1b" stroke-width="1.51"/><path d="M-609,524L-648,1364L-468,845Z" fill="#3a2915" stroke="#3a2915" stroke-width="1.51"/><path d="M-728,1561L-648,1364L-609,524Z" fill="#4a3317" stroke="#4a3317" stroke-width="1.51"/><path d="M-240,1557L227,1998L438,1481Z" fill="#794f1d" stroke="#794f1d" stroke-width="1.51"/><path d="M1248,2390L1808,1666L1196,1677Z" fill="#ce7e02" stroke="#ce7e02" stroke-width="1.51"/><path d="M-38,2131L227,1998L-240,1557Z" fill="#885a23" stroke="#885a23" stroke-width="1.51"/><path d="M1683,822L2387,885L1843,386Z" fill="#9d6210" stroke="#9d6210" stroke-width="1.51"/><path d="M1196,1677L1796,1429L1436,1128Z" fill="#a56503" stroke="#a56503" stroke-width="1.51"/><path d="M109,-741L-10,-919L-244,-232Z" fill="#212121" stroke="#212121" stroke-width="1.51"/><path d="M1109,-613L-10,-919L717,-608Z" fill="#322619" stroke="#322619" stroke-width="1.51"/><path d="M-648,1364L-728,1561L-240,1557Z" fill="#66441d" stroke="#66441d" stroke-width="1.51"/><path d="M-777,-545L-728,1561L-609,524Z" fill="#2f251a" stroke="#2f251a" stroke-width="1.51"/><path d="M1796,1429L2294,1129L1683,822Z" fill="#b36e02" stroke="#b36e02" stroke-width="1.51"/><path d="M1196,1677L1808,1666L1796,1429Z" fill="#c17602" stroke="#c17602" stroke-width="1.51"/><path d="M1248,2390L1196,1677L947,1741Z" fill="#b46e02" stroke="#b46e02" stroke-width="1.51"/><path d="M227,1998L506,2242L947,1741Z" fill="#9a6114" stroke="#9a6114" stroke-width="1.51"/><path d="M40,2474L506,2242L227,1998Z" fill="#925d1d" stroke="#925d1d" stroke-width="1.51"/><path d="M-728,1561L-38,2131L-240,1557Z" fill="#7c5221" stroke="#7c5221" stroke-width="1.51"/><path d="M-596,208L-777,-545L-609,524Z" fill="#232221" stroke="#232221" stroke-width="1.51"/><path d="M-524,-122L-777,-545L-596,208Z" fill="#212121" stroke="#212121" stroke-width="1.51"/><path d="M-10,-919L-777,-545L-244,-232Z" fill="#212121" stroke="#212121" stroke-width="1.51"/><path d="M2176,1545L2294,1129L1796,1429Z" fill="#ca7c02" stroke="#ca7c02" stroke-width="1.51"/><path d="M1974,130L2222,-395L1894,-376Z" fill="#8b5b23" stroke="#8b5b23" stroke-width="1.51"/><path d="M2294,1129L2387,885L1683,822Z" fill="#a46504" stroke="#a46504" stroke-width="1.51"/><path d="M2387,885L2442,535L1843,386Z" fill="#9b6113" stroke="#9b6113" stroke-width="1.51"/><path d="M2090,2289L2176,1545L1808,1666Z" fill="#f69701" stroke="#f69701" stroke-width="1.51"/><path d="M1808,1666L2176,1545L1796,1429Z" fill="#db8601" stroke="#db8601" stroke-width="1.51"/><path d="M2294,1129L2411,1057L2387,885Z" fill="#aa6803" stroke="#aa6803" stroke-width="1.51"/><path d="M2442,139L2222,-395L1974,130Z" fill="#8b5b23" stroke="#8b5b23" stroke-width="1.51"/><path d="M1894,-376L1840,-930L1109,-613Z" fill="#704a1f" stroke="#704a1f" stroke-width="1.51"/><path d="M1109,-613L1840,-930L-10,-919Z" fill="#3c2a15" stroke="#3c2a15" stroke-width="1.51"/><path d="M2737,1702L2411,1057L2294,1129Z" fill="#c37802" stroke="#c37802" stroke-width="1.51"/><path d="M2387,885L2411,1057L2442,535Z" fill="#a1630a" stroke="#a1630a" stroke-width="1.51"/><path d="M2442,535L2442,139L1974,130Z" fill="#925e1c" stroke="#925e1c" stroke-width="1.51"/><path d="M2156,-659L1840,-930L1894,-376Z" fill="#8b5b23" stroke="#8b5b23" stroke-width="1.51"/><path d="M506,2242L1248,2390L947,1741Z" fill="#a26406" stroke="#a26406" stroke-width="1.51"/><path d="M2222,-395L2156,-659L1894,-376Z" fill="#8b5b23" stroke="#8b5b23" stroke-width="1.51"/><path d="M2588,-561L2156,-659L2222,-395Z" fill="#8b5b23" stroke="#8b5b23" stroke-width="1.51"/><path d="M506,2242L923,2647L1248,2390Z" fill="#a26406" stroke="#a26406" stroke-width="1.51"/><path d="M-38,2131L40,2474L227,1998Z" fill="#8d5b21" stroke="#8d5b21" stroke-width="1.51"/><path d="M-505,2523L40,2474L-38,2131Z" fill="#8b5b23" stroke="#8b5b23" stroke-width="1.51"/><path d="M40,2474L923,2647L506,2242Z" fill="#976017" stroke="#976017" stroke-width="1.51"/><path d="M923,2647L1194,2648L1248,2390Z" fill="#b36d02" stroke="#b36d02" stroke-width="1.51"/><path d="M1248,2390L1911,2331L1808,1666Z" fill="#e58c01" stroke="#e58c01" stroke-width="1.51"/><path d="M1542,2768L1911,2331L1248,2390Z" fill="#dd8701" stroke="#dd8701" stroke-width="1.51"/><path d="M2176,1545L2737,1702L2294,1129Z" fill="#d38102" stroke="#d38102" stroke-width="1.51"/><path d="M40,2474L-221,2696L923,2647Z" fill="#915d1d" stroke="#915d1d" stroke-width="1.51"/><path d="M-728,1561L-505,2523L-38,2131Z" fill="#8b5b23" stroke="#8b5b23" stroke-width="1.51"/><path d="M2864,-131L2588,-561L2222,-395Z" fill="#8b5b23" stroke="#8b5b23" stroke-width="1.51"/><path d="M2156,-659L2588,-561L1840,-930Z" fill="#8b5b23" stroke="#8b5b23" stroke-width="1.51"/><path d="M2864,-131L2222,-395L2442,139Z" fill="#8b5b23" stroke="#8b5b23" stroke-width="1.51"/><path d="M2864,-131L2442,139L2442,535Z" fill="#8f5d1f" stroke="#8f5d1f" stroke-width="1.51"/><path d="M-505,2523L-221,2696L40,2474Z" fill="#8b5b23" stroke="#8b5b23" stroke-width="1.51"/><path d="M923,2647L1542,2768L1194,2648Z" fill="#bc7303" stroke="#bc7303" stroke-width="1.51"/><path d="M2015,2459L2090,2289L1911,2331Z" fill="#ff9c00" stroke="#ff9c00" stroke-width="1.51"/><path d="M1911,2331L2090,2289L1808,1666Z" fill="#ff9c00" stroke="#ff9c00" stroke-width="1.51"/><path d="M2737,1702L2442,535L2411,1057Z" fill="#b06c02" stroke="#b06c02" stroke-width="1.51"/><path d="M2737,1702L2864,-131L2442,535Z" fill="#9d6210" stroke="#9d6210" stroke-width="1.51"/><path d="M1542,2768L2015,2459L1911,2331Z" fill="#f59601" stroke="#f59601" stroke-width="1.51"/><path d="M-505,2523L-936,2398L-221,2696Z" fill="#8b5b23" stroke="#8b5b23" stroke-width="1.51"/><path d="M-728,1561L-936,2398L-505,2523Z" fill="#8b5b23" stroke="#8b5b23" stroke-width="1.51"/><path d="M-777,-545L-936,2398L-728,1561Z" fill="#493217" stroke="#493217" stroke-width="1.51"/><path d="M1194,2648L1542,2768L1248,2390Z" fill="#c67902" stroke="#c67902" stroke-width="1.51"/><path d="M-221,2696L1542,2768L923,2647Z" fill="#9f620e" stroke="#9f620e" stroke-width="1.51"/><path d="M2545,2067L2176,1545L2090,2289Z" fill="#ff9c00" stroke="#ff9c00" stroke-width="1.51"/><path d="M2545,2067L2737,1702L2176,1545Z" fill="#f09301" stroke="#f09301" stroke-width="1.51"/><path d="M2547,2651L2545,2067L2090,2289Z" fill="#ff9c00" stroke="#ff9c00" stroke-width="1.51"/><path d="M2015,2459L2547,2651L2090,2289Z" fill="#ff9c00" stroke="#ff9c00" stroke-width="1.51"/><path d="M2545,2067L2547,2651L2737,1702Z" fill="#ff9c00" stroke="#ff9c00" stroke-width="1.51"/><path d="M1542,2768L2547,2651L2015,2459Z" fill="#ff9c00" stroke="#ff9c00" stroke-width="1.51"/></svg>